<svg width="72" height="72" viewBox="0 0 72 72" fill="none" xmlns="http://www.w3.org/2000/svg">
<rect width="72" height="72" fill="#1E232C"/>
<g clip-path="url(#clip0)">
<g style="mix-blend-mode:screen">
<path d="M36.4746 70.9491C56.0666 70.9491 71.9491 55.0666 71.9491 35.4745C71.9491 15.8825 56.0666 -1.52588e-05 36.4746 -1.52588e-05C16.8825 -1.52588e-05 1 15.8825 1 35.4745C1 55.0666 16.8825 70.9491 36.4746 70.9491Z" fill="url(#paint0_radial)"/>
</g>
<g style="mix-blend-mode:screen">
<path d="M36.4746 63.3656C51.8784 63.3656 64.3656 50.8783 64.3656 35.4745C64.3656 20.0708 51.8784 7.58351 36.4746 7.58351C21.0708 7.58351 8.58353 20.0708 8.58353 35.4745C8.58353 50.8783 21.0708 63.3656 36.4746 63.3656Z" fill="url(#paint1_radial)"/>
</g>
<g style="mix-blend-mode:screen" opacity="0.15">
<path d="M36.4746 62.0932C51.1756 62.0932 63.0932 50.1756 63.0932 35.4746C63.0932 20.7735 51.1756 8.85593 36.4746 8.85593C21.7735 8.85593 9.85593 20.7735 9.85593 35.4746C9.85593 50.1756 21.7735 62.0932 36.4746 62.0932Z" fill="url(#paint2_radial)"/>
</g>
<path fill-rule="evenodd" clip-rule="evenodd" d="M60.6502 35.0674C60.6502 37.4086 60.3448 39.648 59.734 41.7347C58.5125 46.01 56.1204 49.7763 52.9649 52.7283C50.7254 54.815 48.028 56.4946 45.1269 57.6143C42.4803 58.6322 39.5792 59.1921 36.5763 59.1921C36.1692 59.1921 35.7111 59.1921 35.3039 59.1412C34.6932 59.0903 34.0315 59.0394 33.4208 58.9885C28.7892 58.3777 24.514 56.4437 21.1039 53.5426C19.8315 52.4738 18.6609 51.2523 17.5921 49.929C16.8287 48.962 16.1161 47.8932 15.4545 46.7734C15.3018 46.519 15.1491 46.2645 14.9964 45.9591C14.8437 45.6537 14.691 45.3993 14.5892 45.0939C14.1821 44.1777 13.8258 43.2107 13.5204 42.2437C13.3168 41.5312 13.1133 40.8186 12.9606 40.1061C12.8588 39.5971 12.757 39.0881 12.7061 38.5283C12.5534 37.4086 12.4516 36.2889 12.4516 35.1183C12.4516 34.4566 12.4516 33.795 12.5534 33.1333C12.6043 32.7261 12.6043 32.319 12.7061 31.9118C13.0115 29.5197 13.6731 27.2803 14.6401 25.1935C15.0982 24.1756 15.6581 23.1577 16.2688 22.1907C17.2867 20.6129 18.4573 19.1369 19.8315 17.8645C24.1577 13.6401 30.1125 11.0444 36.6272 11.0444C36.8817 11.0444 37.1362 11.0444 37.3907 11.0444C37.6452 11.0444 37.9505 11.0444 38.205 11.0953C39.5792 11.1971 40.9534 11.4007 42.2767 11.7061C43.0401 11.9097 43.8036 12.1132 44.5161 12.3677C45.0251 12.5204 45.4832 12.724 45.9921 12.9276C46.3484 13.0803 46.7047 13.2329 47.0609 13.3856C47.1118 13.4365 47.1627 13.4365 47.2645 13.4874C49.6057 14.658 51.7434 16.134 53.5756 17.9663C53.8301 18.2208 54.0846 18.4752 54.3391 18.7297C54.4918 18.9333 54.6953 19.086 54.848 19.2896C55.1534 19.595 55.4079 19.9512 55.6624 20.2566C56.6294 21.4781 57.4946 22.8014 58.1563 24.1756C58.9706 25.8043 59.6323 27.5347 60.0903 29.3161C60.3957 31.1484 60.6502 33.0824 60.6502 35.0674Z" fill="url(#paint3_radial)"/>
<path opacity="0.4" fill-rule="evenodd" clip-rule="evenodd" d="M12.4007 35.0674C12.4007 35.0674 18.1011 45.1448 23.5978 46.7226C29.0946 48.3003 35.3548 47.2824 37.4925 48.0967C39.6301 48.9111 40.8007 52.1684 40.8007 52.1684L41.6151 52.6265C41.6151 52.6265 43.4473 49.7763 44.567 51.4559C44.567 51.4559 44.109 49.0638 45.4832 46.1627C46.8574 43.2616 47.7226 40.157 49.4022 39.139C51.0817 38.1211 54.1355 37.6631 56.5785 38.6301C59.0215 39.5971 60.243 39.3935 60.243 39.3935L60.4466 38.2738L60.6502 37.2559C60.6502 37.2559 58.309 37.6122 56.4767 36.4416C56.4767 36.4416 56.7312 36.8996 58.1563 34.2021C59.5814 31.5046 59.4287 29.0616 59.4287 29.0616L59.2251 26.8222C59.2251 26.8222 58.4617 34.6093 55.1534 36.8487C55.1534 36.8487 47.8244 35.3218 44.7197 43.9742C44.7197 43.9742 44.2108 49.7254 41.1061 49.5727C38.0523 49.42 39.1211 45.6537 34.6423 45.6028C30.2143 45.5519 27.5168 47.3842 23.1398 44.8903C18.7627 42.3964 12.4007 35.0674 12.4007 35.0674Z" fill="#7D72B3"/>
<path opacity="0.4" fill-rule="evenodd" clip-rule="evenodd" d="M35.2531 59.1412C35.2531 59.1412 38.3068 54.6115 41.6151 54.6115C44.9742 54.6115 46.5011 55.833 49.1477 54.3061C51.7943 52.7792 52.8631 51.8122 54.0846 50.9978C55.3061 50.1835 55.5097 49.929 55.5097 49.929L56.0696 49.2165C56.0696 49.2165 54.2373 48.3004 52.6086 49.6236C50.98 50.9469 48.028 53.9498 45.6868 53.8989C43.3455 53.8989 43.4473 52.5247 40.8516 53.5935C38.205 54.6624 32.7083 58.3778 32.7083 58.3778C32.7083 58.3778 33.6753 59.0903 35.2531 59.1412Z" fill="#7D72B3"/>
<path opacity="0.4" fill-rule="evenodd" clip-rule="evenodd" d="M13.724 42.9563L14.0294 43.7706C14.0294 43.7706 18.7118 46.3663 21.7147 49.9799C24.6667 53.5935 25.2265 56.0366 25.2265 56.0366C25.2265 56.0366 25.7355 53.8989 23.1907 49.8272C20.595 45.8065 15.0982 43.567 13.724 42.9563Z" fill="#7D72B3"/>
<path fill-rule="evenodd" clip-rule="evenodd" d="M47.0609 13.3856C46.9591 13.3856 46.9082 13.3856 46.8064 13.4365C46.552 13.4874 46.2975 13.4365 46.043 13.3856C45.8903 13.3347 45.7885 13.233 45.5849 13.233C45.2796 13.1821 45.0251 13.0803 44.7197 13.0294C44.4143 12.9785 44.1599 12.8767 43.8545 12.7749C43.6 12.6731 43.4982 12.724 43.2946 12.7749C43.091 12.8258 42.9383 12.724 42.7348 12.6731C42.5312 12.5713 42.2767 12.5713 42.0731 12.5204C41.4624 12.4186 40.8516 12.215 40.2409 12.0623C39.8846 11.9606 39.5283 11.9606 39.1211 11.9606C38.8158 11.9606 38.5613 12.0623 38.2559 12.0623C38.0523 12.0623 37.8996 12.0115 37.6961 12.0115C37.4925 11.9606 37.2889 12.0115 37.0853 12.0115C36.7799 11.9606 36.6272 11.9097 36.3219 12.0115C36.0674 12.0623 35.9147 12.0623 35.6602 12.1132C35.4057 12.1132 35.1004 12.215 34.8459 12.2659C34.3878 12.3677 33.8789 12.4695 33.4208 12.4695C33.1154 12.4695 32.7082 12.3677 32.4538 12.4695C32.3011 12.5204 32.1993 12.724 32.0466 12.8258C31.7921 13.0803 31.5376 13.2839 31.334 13.5383C31.1305 13.7928 30.9269 14.0982 30.9269 14.4545C30.9269 14.7598 31.0796 15.1161 31.2323 15.3706C31.3849 15.676 31.4358 15.9304 31.1305 16.134C30.7742 16.3885 30.3161 16.5921 29.909 16.7448C29.6036 16.8466 29.3491 16.8975 29.1455 16.6939C29.0437 16.643 28.9928 16.4903 28.891 16.3885C28.7892 16.3376 28.6366 16.3885 28.5348 16.4394C28.2294 16.5412 27.924 16.643 27.6186 16.6939C27.4151 16.7448 27.2624 16.8466 27.0588 16.8466C26.8552 16.8975 26.7025 16.7448 26.448 16.7957C26.0918 16.643 25.7864 16.7957 25.4301 16.7957C25.1756 16.7957 24.8703 16.6939 24.6667 16.5921C24.5649 16.5412 24.514 16.4394 24.3613 16.4903C24.2595 16.4903 24.1068 16.643 24.0559 16.7448C23.9541 16.8466 23.9541 16.9993 23.8523 17.1011C23.7505 17.2537 23.6996 17.3555 23.5978 17.5082C23.4452 17.7627 23.2925 18.0172 23.1398 18.2717C23.038 18.4244 22.9362 18.6788 22.7835 18.8315C22.7326 18.9333 22.5799 18.9842 22.4781 19.0351C22.2237 19.1878 21.9692 19.3914 21.7147 19.5441C21.2566 19.9003 20.7986 20.3075 20.3405 20.6638C19.9842 20.9183 19.4753 21.071 19.0681 21.2745C18.8136 21.3763 18.5591 21.4781 18.3047 21.5799C18.2029 21.6308 18.0502 21.6308 17.9993 21.7326C17.8975 21.8344 17.8466 21.9362 17.7957 22.0889C17.5921 22.3434 17.3376 22.6487 17.1849 22.9541C17.0832 23.1577 17.0323 23.3104 16.9305 23.514C16.8287 23.7684 16.676 24.0229 16.6251 24.3283C16.4215 24.8882 16.4215 25.4989 16.167 26.0588C16.0652 26.3641 15.8616 26.6695 15.709 26.9749C15.4545 27.4839 15.4036 28.0946 15.3527 28.6545C15.3018 28.9598 15.3527 29.367 15.4036 29.6724C15.4545 30.0287 15.4545 30.3849 15.4545 30.7412C15.4545 31.0975 15.2 31.5046 14.9964 31.7591C14.7928 32.0136 14.4366 32.1154 14.1821 32.3699C13.9785 32.5735 13.724 32.777 13.6222 33.0824C13.5713 33.1842 13.6222 33.3369 13.6222 33.4896C13.5713 33.795 13.4695 34.0494 13.4695 34.3548C13.4186 34.7111 13.4186 35.0674 13.4186 35.4745C13.4186 35.6781 13.4186 35.8308 13.4186 36.0344C13.4186 36.238 13.4695 36.3907 13.5204 36.5434C13.5204 36.6452 13.5204 36.7978 13.5204 36.8996C13.5204 37.0523 13.6222 37.205 13.6222 37.3068C13.724 37.6631 13.7749 37.9684 13.8258 38.3247C13.8767 38.6301 14.0294 38.9355 14.0803 39.2408C14.233 39.648 14.2839 40.0552 14.3857 40.5132C14.4366 40.8186 14.4366 41.1749 14.4875 41.4803C14.5384 41.7348 14.5892 41.9892 14.5892 42.2437C14.5892 42.6509 14.4875 43.0072 14.4875 43.4143C14.4875 44.076 14.7419 44.7376 14.8946 45.3993C14.9455 45.6029 14.9964 45.7555 15.0473 45.9591C13.3677 42.7018 12.4516 38.9864 12.4516 35.0674C12.4516 30.2831 13.8258 25.8552 16.2179 22.1398C17.2358 20.562 18.4065 19.086 19.7806 17.8136C24.1068 13.5892 30.0616 10.9935 36.5763 10.9935C37.0853 10.9935 37.6452 10.9935 38.1541 11.0444C41.3097 11.1971 44.3634 12.0623 47.0609 13.3856Z" fill="url(#paint4_linear)"/>
<path opacity="0.4" fill-rule="evenodd" clip-rule="evenodd" d="M18.3047 21.5799C18.3047 21.5799 23.7506 26.4151 30.876 26.5678C38.0523 26.7204 40.6989 26.2115 43.091 23.5649C45.4832 20.9183 48.028 16.4394 48.028 16.4394C48.028 16.4394 44.9742 17.9154 42.8366 20.8165C40.7498 23.6667 30.7742 28.5527 18.3047 21.5799Z" fill="#7D72B3"/>
<g opacity="0.7">
<path opacity="0.4" fill-rule="evenodd" clip-rule="evenodd" d="M18.7119 21.6817C17.9993 22.547 17.3886 23.3613 16.9305 24.3792C16.5233 25.2445 16.3706 26.2624 16.2179 27.2294C16.1162 27.7893 16.0653 28.3491 15.9635 28.9599C15.9126 29.4688 15.7599 29.9778 15.8108 30.4868C15.9126 31.1993 15.9635 31.9627 16.3197 32.5735C16.676 33.2351 17.0323 33.8459 17.4904 34.4567C17.9484 35.0165 18.5083 35.3219 19.2717 35.3728C19.6789 35.4237 20.086 35.3219 20.4932 35.3728C21.0531 35.4237 21.6129 35.5255 22.1728 35.6273C23.2925 35.8308 24.5649 35.8308 25.3792 34.9147C26.0409 34.1513 26.3463 33.2351 26.7534 32.319C27.2115 31.352 27.7714 30.5886 28.5857 29.9269C29.1964 29.4688 29.7563 28.909 30.3162 28.4C30.5706 28.1964 30.7233 27.942 31.0287 27.7384C31.3341 27.5857 31.4868 27.3821 31.7412 27.1276C31.9957 26.924 32.2502 26.7713 32.4538 26.5169C32.8101 26.1097 33.0645 25.6007 33.2172 25.1427C33.4208 24.6337 33.4717 24.1248 33.5735 23.5649C33.6244 23.0559 33.4717 22.547 33.319 22.038C33.0136 21.1219 32.1993 20.5111 31.4868 19.9513C30.5706 19.2387 29.4509 18.9334 28.3312 18.6789C27.3133 18.4753 26.0409 18.4244 24.9721 18.628C23.8524 18.8316 22.7326 18.9843 21.7147 19.4423C21.0022 19.8495 20.5441 20.3584 19.9334 20.8674C19.628 21.1219 19.2717 21.3255 18.9663 21.6309C18.6101 21.9871 18.2538 22.4452 18.7119 21.6817Z" fill="#7D72B3"/>
<path opacity="0.4" fill-rule="evenodd" clip-rule="evenodd" d="M29.6545 17.2029C29.8072 16.9484 29.9599 16.5412 30.1635 16.3376C30.2653 16.1849 30.418 16.0831 30.5706 15.9814C30.9778 15.6251 31.4359 15.3706 31.9448 15.2179C32.2502 15.1161 32.5556 15.1161 32.8101 15.2179C33.1154 15.2688 33.6244 15.4724 33.828 15.676C34.2352 16.0831 33.9807 16.7448 33.828 17.2029C33.7262 17.6609 33.5735 18.119 33.1663 18.3735C32.9119 18.5771 32.5556 18.7297 32.2502 18.7806C32.0975 18.8315 31.8939 18.8315 31.6904 18.8315C31.5377 18.8315 31.385 18.8824 31.2832 18.8824C30.9269 18.8824 30.418 18.628 30.3162 18.3226C30.2653 18.1699 30.2144 17.9663 30.1126 17.8136C30.0617 17.6609 30.0108 17.5591 29.9599 17.4064C29.8581 17.152 29.7563 16.8975 29.6545 17.2029Z" fill="#7D72B3"/>
<path opacity="0.4" fill-rule="evenodd" clip-rule="evenodd" d="M33.6244 19.7477C33.5226 20.0021 33.4717 20.3075 33.4717 20.562C33.5735 20.6129 33.6244 20.7656 33.7771 20.8674C33.8789 20.9183 34.0316 20.9183 34.1843 20.9183C34.4388 20.9183 34.6423 20.9183 34.6932 20.6129C34.7441 20.3584 34.4897 20.1548 34.2861 20.0021C34.1334 19.9004 33.8789 19.6459 33.7262 19.8495L33.6244 19.7477Z" fill="#7D72B3"/>
<path opacity="0.4" fill-rule="evenodd" clip-rule="evenodd" d="M36.9836 23.6667C36.6782 23.8703 36.3219 24.0739 36.0165 24.3283C35.6603 24.6337 35.3549 24.99 35.0495 25.3972C34.6932 25.8552 34.2352 26.3642 34.337 27.0258C34.4388 27.6366 34.6423 28.1964 35.1004 28.6036C35.6603 29.1126 36.5255 29.1126 37.1871 29.4179C37.747 29.6724 38.1033 30.2323 38.3578 30.7921C38.7649 31.6065 39.6811 31.7592 40.4954 31.9119C41.0043 32.0136 41.5642 32.0645 42.0732 32.1663C42.7857 32.2681 43.4983 32.3699 44.2108 32.4717C45.5341 32.5735 46.8574 32.8789 48.1807 32.7771C49.6058 32.6753 50.8782 32.1663 51.9979 31.352C52.9649 30.6903 53.8811 29.4688 54.1355 28.2982C54.39 27.0767 53.9829 25.7025 53.423 24.5828C52.6596 23.1577 51.7434 21.8853 50.7255 20.6129C50.1656 19.9004 49.5549 19.2896 48.9441 18.628C48.4352 18.0172 47.9262 17.5083 47.3664 16.9993C46.0431 15.8796 44.4144 14.9635 42.6839 14.8617C42.0223 14.8108 41.3606 14.9126 40.699 15.167C40.1391 15.3706 39.7319 15.676 39.3248 16.1341C38.3069 17.2029 37.747 18.5771 37.2889 19.9513C37.0854 20.6129 36.8818 21.3255 36.9836 21.9871C36.9836 22.1907 37.1362 22.3434 37.1362 22.547C37.1362 22.7506 37.1362 22.9032 37.1362 23.1068C37.1362 23.2086 37.1362 23.3104 37.0854 23.4122C37.0345 23.514 36.8818 23.6667 36.9836 23.6667Z" fill="#7D72B3"/>
<path opacity="0.4" fill-rule="evenodd" clip-rule="evenodd" d="M31.4359 28.4509C30.7742 28.8581 30.0617 29.1635 29.5527 29.7742C29.4509 29.876 29.3491 30.0287 29.4 30.1814C29.4509 30.3341 29.6545 30.4359 29.8072 30.4868C30.3162 30.6903 30.9269 30.7921 31.4868 30.6903C31.9957 30.5885 32.6065 30.2832 32.861 29.8251C33.2172 29.2652 32.8101 28.3491 32.0975 28.4C31.9957 28.4 31.8939 28.4509 31.7922 28.4509C31.6904 28.4509 31.6395 28.4509 31.5377 28.4509C31.4359 28.4509 31.4359 28.4509 31.3341 28.5018C31.2832 28.6036 31.1814 28.7054 31.4359 28.4509Z" fill="#7D72B3"/>
<path opacity="0.4" fill-rule="evenodd" clip-rule="evenodd" d="M17.4903 37.7649C17.2359 38.0194 16.9305 38.223 16.7778 38.5283C16.6251 38.8337 16.5233 39.1391 16.4724 39.4954C16.4215 39.8007 16.3197 40.1061 16.4215 40.4115C16.4724 40.666 16.6251 40.9205 16.7269 41.2258C16.8287 41.5821 16.9814 41.8875 17.0323 42.2438C17.1341 42.7018 17.2868 43.0581 17.4903 43.4653C17.6939 43.8724 17.8975 44.2287 18.152 44.585C18.4065 44.9921 18.661 45.2466 18.9663 45.6029C20.086 46.7226 21.4093 47.9441 23.038 48.1477C23.8523 48.2495 24.7176 48.0459 25.3283 47.4351C25.99 46.7735 26.3972 45.8574 26.5498 44.9412C26.6516 44.1778 26.6007 43.3635 26.1936 42.7018C25.8373 42.142 25.481 41.5821 25.0739 41.124C24.7685 40.8187 24.4631 40.5642 24.1068 40.2588C23.8015 39.9534 23.4961 39.6481 23.1398 39.4445C22.5291 38.9864 21.9692 38.5283 21.3584 38.1212C20.7986 37.714 20.1878 37.3068 19.5262 37.1542C19.0681 37.0524 18.5592 36.9506 18.1011 37.1542C17.8975 37.2559 17.7448 37.3068 17.643 37.4595C17.5921 37.5613 17.4903 37.714 17.4903 37.8158C17.3886 37.714 17.3886 37.714 17.4903 37.7649Z" fill="#7D72B3"/>
<path opacity="0.4" fill-rule="evenodd" clip-rule="evenodd" d="M21.8165 36.696C21.8165 36.8996 21.8674 37.1032 21.8674 37.2559C21.8674 37.3068 21.9183 37.3577 21.9183 37.4595C21.9692 37.5104 22.1219 37.5104 22.1728 37.5104C22.3764 37.5104 22.58 37.4086 22.7326 37.3068C22.9871 37.1032 23.0889 36.696 22.8344 36.4924C22.6817 36.3398 22.4273 36.238 22.1728 36.2889C22.071 36.3398 21.5111 36.5942 21.7147 36.7978L21.8165 36.696Z" fill="#7D72B3"/>
<path opacity="0.4" fill-rule="evenodd" clip-rule="evenodd" d="M54.0846 31.4029C54.1864 30.9957 54.1864 30.6903 54.4409 30.3849C54.6954 30.1305 54.9498 29.8251 55.1534 29.5706C55.5606 29.0617 55.8151 28.4 55.9678 27.7893C56.1204 27.2294 55.9678 26.6695 56.2222 26.1097C56.2731 25.957 56.3749 25.7534 56.4767 25.6516C56.5785 25.6007 56.8839 25.6516 56.9857 25.7025C57.0875 25.7534 57.2402 25.9061 57.342 26.0079C57.4946 26.1606 57.6473 26.3133 57.8509 26.5169C58.6653 27.3821 59.1233 28.7054 59.0724 29.876C59.0724 30.5885 58.9706 31.1993 58.767 31.8609C58.6653 32.1154 58.5635 32.3699 58.4108 32.6244C58.2581 32.9297 58.0036 33.0824 57.7491 33.286C56.9348 33.795 55.7133 33.6423 55.0007 32.9806C54.7463 32.7262 54.6445 32.4208 54.4409 32.1154C54.2882 31.9118 54.1864 31.7082 54.1355 31.4029C54.1355 31.352 54.0846 31.352 54.0846 31.4029Z" fill="#7D72B3"/>
<path opacity="0.4" fill-rule="evenodd" clip-rule="evenodd" d="M54.0846 22.3434C54.2373 22.8014 54.2882 23.3104 54.7972 23.5649C54.8989 23.6158 55.0516 23.6667 55.1534 23.6667C55.2552 23.6667 55.357 23.6158 55.4588 23.514C55.9678 23.1577 55.6624 22.2925 55.357 21.8853C55.1534 21.6817 54.8989 21.5799 54.6445 21.4781C54.4918 21.4272 54.5427 21.4272 54.4409 21.4781C54.3391 21.529 54.2882 21.529 54.2373 21.6308C54.1864 21.6817 54.1864 21.8344 54.1864 21.8853C54.1864 21.9871 54.1355 22.038 54.1355 22.0889C54.0846 22.2416 54.1355 22.3943 54.1864 22.5469L54.0846 22.3434Z" fill="#7D72B3"/>
<path opacity="0.4" fill-rule="evenodd" clip-rule="evenodd" d="M50.3183 41.9384C50.2165 42.2437 50.1147 42.6 49.962 42.9054C49.8093 43.2617 49.6567 43.567 49.504 43.9233C49.1477 44.7885 48.9441 45.7556 48.6896 46.6717C48.4351 47.6387 48.2825 48.6566 48.1807 49.6237C48.1298 50.1326 48.028 50.6416 48.0789 51.1505C48.0789 51.5068 48.0789 51.9649 48.2316 52.3211C48.3334 52.5247 48.5369 52.881 48.7405 52.9828C49.0459 53.1355 49.4022 52.881 49.6567 52.7283C50.6237 52.2194 51.4889 51.5068 52.2524 50.7434C53.0158 49.9799 53.7792 49.2674 54.4409 48.4022C54.7463 47.995 55.0516 47.6387 55.3061 47.1806C55.5097 46.8244 55.6624 46.4172 55.8151 46.0609C55.9678 45.7047 56.1205 45.3484 56.2731 44.9921C56.4767 44.585 56.6294 44.1269 56.7821 43.6688C57.0366 42.8036 57.2911 41.9384 56.9857 41.0731C56.7312 40.3097 56.1205 39.7498 55.3061 39.5971C54.899 39.4953 54.39 39.3936 53.9828 39.3936C53.5757 39.4445 53.1176 39.5462 52.7104 39.6989C52.3541 39.8516 51.9979 40.0043 51.6925 40.2079C51.5398 40.3097 51.3871 40.4624 51.2344 40.6151C50.98 40.8695 50.7764 41.124 50.5728 41.4294C50.471 41.5821 50.4201 41.6839 50.2674 41.7857C50.1656 42.0401 50.1147 42.2946 50.3183 41.9384Z" fill="#7D72B3"/>
<path opacity="0.4" fill-rule="evenodd" clip-rule="evenodd" d="M46.5011 53.0846C45.9922 53.2882 45.585 53.4409 45.1269 53.7971C44.618 54.2043 44.109 54.5606 43.7527 55.1204C43.6 55.324 43.3456 55.6294 43.5491 55.8839C43.7018 56.0875 44.0072 56.0875 44.2617 56.0875C44.618 56.0875 44.9742 56.0366 45.2796 55.8839C45.585 55.7821 45.8395 55.5785 46.1448 55.4767C46.4502 55.3749 46.8574 55.1713 47.061 54.9168C47.1628 54.7642 47.2646 54.5606 47.3664 54.4079C47.4682 54.2552 47.4682 54.2043 47.4682 54.0007C47.4682 53.7971 47.3155 53.5427 47.2137 53.4409C47.1119 53.3391 46.8574 53.1864 46.7047 53.2373C46.6029 53.2373 46.5011 53.2882 46.3993 53.3391C46.1957 53.3391 45.9922 53.5936 46.5011 53.0846Z" fill="#7D72B3"/>
<path opacity="0.4" fill-rule="evenodd" clip-rule="evenodd" d="M45.8395 50.1326C45.7377 49.7255 45.6359 49.471 45.6359 49.0638C45.6868 48.7075 45.6868 48.4022 45.8395 48.0968C45.9412 47.9441 46.1448 47.5369 46.2975 47.486C46.3484 47.486 46.5011 47.486 46.552 47.486C46.8065 47.5369 46.9592 47.8423 47.0101 48.0968C47.1119 48.4531 47.0101 48.8602 47.061 49.2674C47.061 49.5728 47.0101 49.8273 46.9083 50.0817C46.8065 50.2853 46.6538 50.2853 46.4502 50.2853C46.2466 50.2853 46.1448 50.2344 45.9921 50.0817C45.9412 50.0308 45.8395 50.0308 45.7886 49.9799C45.7377 49.8782 45.7377 49.7764 45.8395 50.1326Z" fill="#7D72B3"/>
<path opacity="0.4" fill-rule="evenodd" clip-rule="evenodd" d="M45.4323 34.8638C45.3814 35.1183 45.3814 35.4237 45.3814 35.6782C45.4832 35.6782 45.585 35.8818 45.6868 35.8818C45.8904 35.9327 46.0431 35.8309 46.1957 35.7291C46.5011 35.4746 46.6029 35.0165 46.5011 34.6603C46.4502 34.304 46.0431 34.2531 45.7377 34.304C45.6359 34.304 45.4832 34.3549 45.4323 34.4058C45.2287 34.5585 45.2287 34.762 45.2287 34.9656L45.4323 34.8638Z" fill="#7D72B3"/>
<path opacity="0.4" fill-rule="evenodd" clip-rule="evenodd" d="M22.3764 51.4559C22.529 51.1505 22.6817 50.8452 22.8853 50.5907C23.1398 50.2853 23.3943 50.0308 23.6488 49.7764C24.005 49.471 24.3613 49.1656 24.7176 48.9111C25.0738 48.6566 25.3792 48.4022 25.7355 48.1477C26.3462 47.7405 27.0079 47.486 27.7204 47.2316C28.2803 47.028 28.891 46.9771 29.5018 47.0789C30.1126 47.1807 30.7233 47.5369 31.1305 47.9441C31.5376 48.3513 31.9957 48.8602 32.2502 49.3692C32.81 50.438 32.5556 51.6595 32.1993 52.7283C32.0466 53.2373 31.6903 53.7971 31.2832 54.1534C31.0287 54.357 30.7742 54.4588 30.4688 54.5097C30.1635 54.5606 29.7563 54.7133 29.4509 54.7133C27.9749 54.9168 26.4989 54.8151 25.1247 54.3061C24.5649 54.1025 24.0559 53.848 23.4961 53.5936C23.0889 53.39 22.7326 53.1355 22.4781 52.7792C22.2746 52.5247 22.1219 52.1685 22.1219 51.8122C22.1219 51.6595 22.1728 51.5068 22.2237 51.3541C22.3255 51.4559 22.3764 51.405 22.3764 51.4559Z" fill="#7D72B3"/>
<path opacity="0.4" fill-rule="evenodd" clip-rule="evenodd" d="M33.319 52.1176C33.2173 52.3721 33.1664 52.6774 33.1155 52.9319C33.2173 52.9828 33.2173 53.1355 33.2682 53.2373C33.3699 53.3391 33.4208 53.39 33.5735 53.39C33.7262 53.39 33.8789 53.39 33.9807 53.39C34.1843 53.3391 34.2352 53.2882 34.337 53.1355C34.4388 52.9828 34.4897 52.881 34.4897 52.6774C34.4897 52.5247 34.4388 52.3721 34.337 52.2703C34.2861 52.1685 34.1843 52.0667 34.0825 52.0158C33.8789 51.8631 33.7262 51.9649 33.5735 52.0667L33.319 52.1176Z" fill="#7D72B3"/>
<path opacity="0.4" fill-rule="evenodd" clip-rule="evenodd" d="M57.0875 39.5463C56.8839 39.3936 56.6803 39.19 56.5277 38.9355C56.5277 38.8337 56.5277 38.7319 56.5277 38.6301C56.4768 38.3757 56.4259 38.1721 56.4768 37.9176C56.5785 37.3068 57.0875 36.8997 57.6983 36.8488C58.1054 36.7979 58.6653 37.1033 58.8689 37.4595C59.0725 37.8158 59.1743 38.223 59.1743 38.6301C59.1743 38.9355 59.1234 39.3427 58.9198 39.5972C58.7671 39.8007 58.5126 39.8007 58.309 39.8007C58.0545 39.8007 57.8001 39.7498 57.5965 39.699C57.4438 39.6481 57.2402 39.5463 57.0875 39.5463Z" fill="#7D72B3"/>
</g>
<g style="mix-blend-mode:screen">
<path fill-rule="evenodd" clip-rule="evenodd" d="M22.2237 53.8989C19.7298 51.8122 17.643 49.2165 16.1671 46.3154C15.2509 44.4831 14.5384 42.4982 14.0803 40.4114C13.724 38.7828 13.5714 37.1541 13.5714 35.4236C13.5714 30.6394 14.9456 26.2114 17.3377 22.496C18.3556 20.9183 19.5262 19.4423 20.9004 18.1699C25.2266 13.9455 31.1814 11.3498 37.6961 11.3498C38.205 11.3498 38.7649 11.3498 39.2739 11.4007C40.9025 11.5025 42.4803 11.757 44.0072 12.215C42.124 11.6043 40.1391 11.1971 38.0524 11.0953C37.5434 11.0444 37.0344 11.0444 36.4746 11.0444C29.9599 11.0444 24.005 13.6401 19.6789 17.8645C18.3556 19.1878 17.1341 20.6129 16.1162 22.1907C13.724 25.9061 12.3499 30.3849 12.3499 35.1182C12.3499 36.8487 12.5534 38.4774 12.8588 40.1061C13.3169 42.1928 13.9785 44.1268 14.9456 46.01C16.4215 48.962 18.5083 51.5068 21.0022 53.5935C23.6488 55.8329 26.7534 57.4616 30.1635 58.3777C27.2624 57.4107 24.5649 55.8838 22.2237 53.8989Z" fill="url(#paint5_radial)"/>
</g>
<path opacity="0.4" fill-rule="evenodd" clip-rule="evenodd" d="M15.2 32.4717C15.2 32.4717 28.6874 37.9684 36.0165 37.5613C43.3455 37.1032 46.4502 32.9297 49.4021 29.1125C52.3032 25.2953 53.4229 20.6638 53.4229 20.6638C53.4229 20.6638 47.8753 31.3519 41.0043 34.2021L37.0344 35.0165C37.0344 35.0165 39.1211 33.4896 40.5462 31.9118C41.9713 30.334 47.519 28.0946 48.0788 26.2623C48.5878 24.4301 48.5369 21.4272 49.453 19.4932C50.3692 17.5591 51.2344 15.9813 51.2344 15.9813L48.8423 15.5742L47.7226 18.2208C47.7226 18.2208 47.4172 22.5978 46.552 24.939C45.6867 27.3312 37.3398 33.795 35.4566 34.8638C33.5226 35.9326 16.8796 33.6423 15.2 32.4717Z" fill="#7D72B3"/>
<path opacity="0.4" fill-rule="evenodd" clip-rule="evenodd" d="M39.2738 55.5785C39.3247 55.5785 40.19 55.1713 40.4445 55.1713C40.5462 55.1713 40.648 55.2731 40.7498 55.324C41.0043 55.4767 41.157 55.6294 41.1061 55.9348C41.0552 56.3419 40.648 56.8509 40.19 57.0036C39.6301 57.2072 39.0194 56.9527 38.8158 56.5455C38.6122 56.1384 39.1212 55.4767 39.7319 55.4258L39.2738 55.5785Z" fill="#7D72B3"/>
<path fill-rule="evenodd" clip-rule="evenodd" d="M27.975 31.5556C27.6696 32.1154 26.8552 33.0824 27.1097 33.8968C27.2115 34.253 27.466 34.5584 27.6187 34.9147C28.0258 35.7799 28.8402 36.6452 29.8581 36.0344C31.0287 35.3219 30.5198 34.0495 30.0108 33.1333C29.8072 32.7771 29.5527 32.3699 29.1965 32.1663C28.9929 32.0645 28.6875 31.9627 28.4839 31.9118C28.0767 31.7591 28.3821 31.5556 27.975 31.5556Z" fill="#FF9F84"/>
<path fill-rule="evenodd" clip-rule="evenodd" d="M35.7111 13.8437C35.6602 14.1491 35.6602 14.4036 35.7111 14.709C35.8129 14.709 35.8638 14.7599 35.9656 14.7599C36.0674 14.7599 36.2201 14.709 36.3219 14.6072C36.5254 14.5054 36.5763 14.2509 36.5763 14.0473C36.5763 13.8437 36.5763 13.6401 36.3728 13.5384C36.1183 13.3857 35.8638 13.4875 35.762 13.7419V13.8437H35.7111Z" fill="#FFEF84"/>
<path fill-rule="evenodd" clip-rule="evenodd" d="M30.6215 40.0552C30.6724 39.9025 30.7233 39.3936 30.876 39.19C30.9778 39.0373 31.2323 38.9355 31.4359 38.8337C31.843 38.681 32.3011 38.7319 32.6065 39.0373C33.2172 39.5463 33.1663 40.3606 32.6065 40.9205C32.352 41.1749 31.9957 41.4294 31.6395 41.4294C31.4359 41.4294 31.2323 41.4803 31.0796 41.3785C30.876 41.2767 30.7233 41.0732 30.6724 40.8696C30.5706 40.5133 30.6215 40.2588 30.8251 39.9534L30.6215 40.0552Z" fill="#FF9F84"/>
<path fill-rule="evenodd" clip-rule="evenodd" d="M26.1936 39.8007C26.1936 40.0552 26.0409 40.7168 26.4481 40.8186C26.6516 40.8695 26.8552 40.6151 26.8552 40.4624C26.9061 40.3097 26.8552 40.0552 26.8043 39.9025C26.7025 39.6989 26.4989 39.5462 26.3463 39.7498H26.1936V39.8007Z" fill="#FF9F84"/>
<path fill-rule="evenodd" clip-rule="evenodd" d="M15.9126 35.1183C15.9635 35.5254 15.9635 36.1871 16.2179 36.5434C16.3197 36.6961 16.4215 36.8487 16.6251 36.8996C16.8287 36.9505 16.9305 36.8487 17.0323 36.6961C17.2359 36.4416 17.2359 36.2889 17.2359 35.9835C17.2359 35.729 17.1341 35.4237 17.0323 35.1692C16.9305 35.0165 16.7778 34.8638 16.676 34.762C16.5742 34.6602 16.4724 34.6093 16.2688 34.6093C16.0144 34.6093 16.0653 34.9147 16.0144 35.1183H15.9126Z" fill="#FF9F84"/>
<path fill-rule="evenodd" clip-rule="evenodd" d="M51.6416 33.1333C51.6416 33.0824 51.6925 32.3699 51.8452 32.2172C51.8961 32.1663 52.0488 32.1154 52.0997 32.0645C52.3032 31.9627 52.5577 31.9118 52.8122 32.0136C53.1176 32.1663 53.4229 32.6244 53.3212 32.9806C53.2194 33.4387 52.7104 33.7441 52.3032 33.7441C51.8452 33.7441 51.4889 33.1842 51.7434 32.7771L51.6416 33.1333Z" fill="#FF9F84"/>
<path fill-rule="evenodd" clip-rule="evenodd" d="M26.8552 38.8337C26.8552 38.8337 26.9061 38.4774 26.957 38.3756C27.0079 38.3247 27.0588 38.3247 27.1097 38.3247C27.2115 38.2738 27.3642 38.2738 27.466 38.3247C27.6187 38.4265 27.7713 38.6301 27.7204 38.8337C27.6696 39.0373 27.4151 39.2409 27.2115 39.2409C27.0079 39.2409 26.8043 38.9355 26.9061 38.7319L26.8552 38.8337Z" fill="#FF9F84"/>
<path fill-rule="evenodd" clip-rule="evenodd" d="M37.8487 43.2617C37.8487 43.2617 37.8996 42.9054 37.9505 42.8036C38.0014 42.7527 38.0523 42.7527 38.1032 42.7527C38.205 42.7018 38.3577 42.7018 38.4595 42.7527C38.6122 42.8545 38.7649 43.0581 38.714 43.2617C38.6631 43.4652 38.4086 43.6688 38.205 43.6688C38.0014 43.6688 37.7978 43.3635 37.8996 43.1599L37.8487 43.2617Z" fill="#FF9F84"/>
<path fill-rule="evenodd" clip-rule="evenodd" d="M45.2287 23.8194C45.2287 23.8194 45.2796 23.4631 45.3305 23.3613C45.3814 23.3104 45.4323 23.3104 45.4832 23.3104C45.585 23.2595 45.7376 23.2595 45.8394 23.3104C45.9921 23.4122 46.1448 23.6158 46.0939 23.8194C46.043 24.0229 45.7885 24.2265 45.585 24.2265C45.3814 24.2265 45.1778 23.9212 45.2796 23.7176L45.2287 23.8194Z" fill="#FF9F84"/>
<path fill-rule="evenodd" clip-rule="evenodd" d="M30.1126 52.0158C30.1126 52.0158 30.1635 51.6595 30.2144 51.5577C30.2653 51.5068 30.3161 51.5068 30.367 51.5068C30.4688 51.4559 30.6215 51.4559 30.7233 51.5068C30.876 51.6086 31.0287 51.8122 30.9778 52.0158C30.9269 52.2194 30.6724 52.4229 30.4688 52.4229C30.2653 52.4229 30.0617 52.1176 30.1635 51.914L30.1126 52.0158Z" fill="#FF9F84"/>
<path fill-rule="evenodd" clip-rule="evenodd" d="M50.0638 39.1391C49.7075 39.3936 49.453 39.4954 49.2494 39.8007C49.0968 40.0552 48.8932 40.2588 48.7914 40.5642C48.6896 40.7678 48.5878 41.124 48.5878 41.3276C48.6387 41.9384 49.4021 41.4294 49.6566 41.2258C49.962 40.9713 50.2674 40.6151 50.2674 40.2079C50.2674 40.0552 50.2674 39.8516 50.2165 39.6989C50.1656 39.648 50.1656 39.5463 50.1147 39.4954C50.0129 39.3936 49.962 39.3936 50.0638 39.1391Z" fill="#FF9F84"/>
<path fill-rule="evenodd" clip-rule="evenodd" d="M57.7491 41.9383C57.8 41.6839 57.6473 42.6509 57.6982 42.7018C57.8 42.7018 57.9018 42.7018 58.0036 42.7018C58.1054 42.7018 58.1563 42.6 58.2581 42.5491C58.4617 42.3964 58.6143 42.2946 58.6143 42.0401C58.6143 41.8365 58.5634 41.6839 58.3599 41.5821C58.2581 41.5312 58.2072 41.5312 58.1054 41.5312C57.9018 41.5821 57.7491 41.7857 57.6473 41.9892L57.7491 41.9383Z" fill="#FF9F84"/>
<path fill-rule="evenodd" clip-rule="evenodd" d="M37.238 13.9455C37.238 13.742 37.1362 14.4545 37.1871 14.4545C37.238 14.4545 37.3398 14.4545 37.3907 14.4545C37.4925 14.4545 37.4925 14.4036 37.5434 14.3527C37.6961 14.2509 37.7979 14.2 37.7979 13.9964C37.7979 13.8438 37.7979 13.742 37.6452 13.6911C37.5943 13.6911 37.5434 13.6402 37.4925 13.6402C37.3398 13.6911 37.238 13.7929 37.1871 13.9455H37.238Z" fill="#FFEF84"/>
<path fill-rule="evenodd" clip-rule="evenodd" d="M50.3183 33.6423C50.3183 33.4387 50.2166 34.1513 50.2675 34.1513C50.3184 34.1513 50.4201 34.1513 50.471 34.1513C50.5728 34.1513 50.5728 34.1004 50.6237 34.0495C50.7764 33.9477 50.8782 33.8968 50.8782 33.6932C50.8782 33.5405 50.8782 33.4387 50.7255 33.3878C50.6746 33.3878 50.6237 33.3369 50.5728 33.3369C50.4201 33.3878 50.3184 33.4896 50.2675 33.6423H50.3183Z" fill="#FFEF84"/>
<path fill-rule="evenodd" clip-rule="evenodd" d="M36.5764 52.423C36.7799 52.423 36.0674 52.423 36.0674 52.423C36.0674 52.4738 36.0674 52.5756 36.0674 52.6265C36.0674 52.7283 36.1183 52.7283 36.1692 52.7792C36.271 52.881 36.3728 52.9828 36.5255 52.9828C36.6782 52.9828 36.7799 52.9319 36.7799 52.7792C36.7799 52.7283 36.8308 52.6774 36.7799 52.6265C36.7291 52.4738 36.5764 52.3721 36.4746 52.3721L36.5764 52.423Z" fill="#FFEF84"/>
<path fill-rule="evenodd" clip-rule="evenodd" d="M25.5828 31.7082C25.5828 31.5046 25.481 32.2172 25.5319 32.2172C25.5828 32.2172 25.6846 32.2172 25.7355 32.2172C25.8373 32.2172 25.8373 32.1663 25.8882 32.1154C26.0409 32.0136 26.1427 31.9627 26.1427 31.7591C26.1427 31.6064 26.1427 31.5046 25.99 31.4537C25.9391 31.4537 25.8882 31.4028 25.8373 31.4028C25.6846 31.4537 25.5828 31.5555 25.5319 31.7082H25.5828Z" fill="#FFEF84"/>
<path fill-rule="evenodd" clip-rule="evenodd" d="M36.1692 50.3362C36.2201 50.0817 36.0674 51.0487 36.1183 51.0996C36.2201 51.0996 36.3219 51.0996 36.4237 51.0996C36.5255 51.0996 36.5764 50.9978 36.6781 50.9469C36.8817 50.7942 37.0344 50.6925 37.0344 50.438C37.0344 50.2344 36.9835 50.0817 36.7799 49.9799C36.6781 49.929 36.6273 49.929 36.5255 49.929C36.3219 49.9799 36.1692 50.1835 36.0674 50.3871L36.1692 50.3362Z" fill="#FF9F84"/>
<path fill-rule="evenodd" clip-rule="evenodd" d="M22.7326 34.5075C30.5197 35.729 30.0616 37.8158 39.1211 35.3219C48.1806 32.8279 54.6953 19.2387 54.6953 19.2387C54.6953 19.2387 55.1534 18.2208 54.7462 17.61C54.5935 17.3555 53.4229 17.8645 53.4229 17.8645C53.6265 22.2416 47.519 31.3011 40.5971 33.8968C39.8337 34.1512 39.1211 34.253 38.4086 34.4057C38.1032 34.253 37.2889 33.4896 41.0552 30.9448C45.534 27.9419 47.519 26.8222 47.1118 23.6667C46.7046 20.5111 50.6745 15.5742 50.6745 15.5742C50.6745 15.5742 50.9799 14.2509 50.2165 13.4365C49.2494 12.3677 47.1118 13.4365 47.1118 13.4365C47.1118 13.4365 46.5519 19.5441 38.714 22.9032C30.9269 26.2115 26.5498 24.5828 23.5978 23.6667C20.595 22.7505 19.7297 17.8136 19.7297 17.8136C19.7297 17.8136 17.1849 17.3046 16.2688 18.8824C15.6072 20.053 16.5742 21.529 16.5742 21.529C16.5742 21.529 21.3075 23.2595 25.5319 24.8882C29.7563 26.5168 37.8996 25.0408 40.7498 23.6667C43.6509 22.2925 43.6509 20.053 45.9412 18.0172C46.9082 17.2029 47.8752 16.5921 48.6896 16.2358C48.6896 16.2358 46.1448 20.1548 46.4502 22.9032C46.7555 25.6516 45.0251 25.5498 40.7498 30.3849C37.7469 33.7441 35.1512 34.8638 33.8788 35.1692C30.6215 35.4745 27.6186 35.1183 23.5978 33.9986C17.0322 32.2172 13.1132 29.367 13.1132 29.367C13.1132 29.367 12.5534 29.1125 12.3498 29.7233C12.248 29.9778 12.8588 30.7412 12.8588 30.7412C12.8588 30.7412 14.8946 33.2351 22.7326 34.5075Z" fill="url(#paint6_linear)"/>
<path fill-rule="evenodd" clip-rule="evenodd" d="M28.2294 57.6143C28.2294 57.6143 26.2954 56.3928 24.8703 52.6774C23.4452 48.962 23.5979 49.2165 20.9004 46.8753C18.2029 44.534 13.4695 42.2437 13.4695 42.2437C13.4695 42.2437 13.1642 42.3455 13.1642 42.4473C13.1642 42.9054 13.724 43.0072 13.724 43.0072C13.724 43.0072 18.1011 44.8903 20.8495 47.8932C23.5979 50.8961 26.5498 56.291 24.4631 55.9857C24.4631 55.9857 24.9212 57.309 26.0409 57.6143C27.1097 57.9197 28.2294 57.6143 28.2294 57.6143Z" fill="url(#paint7_radial)"/>
<path d="M47.4172 39.648C48.3333 38.681 49.4021 37.4086 53.7792 37.3577C58.1562 37.3068 60.4466 38.2738 60.4466 38.2738C60.4466 38.2738 61.3627 38.0193 61.4645 36.8487C61.5663 35.6781 60.6502 35.1183 60.6502 35.1183C60.5993 35.4745 60.1412 37.9175 56.4258 36.4925C56.4258 36.4416 57.7491 35.271 58.0545 32.8279C58.3598 30.3849 59.2251 26.8731 59.2251 26.8731C59.2251 26.8731 59.734 26.0079 59.4286 25.2953C59.3269 25.0408 58.4616 24.9391 58.4616 24.9391C59.1742 29.876 57.3419 35.7799 55.3061 36.4925C52.8631 36.5434 49.8602 36.9505 48.486 37.8667C46.8064 38.9864 45.1269 43.9742 44.058 47.486C43.8036 48.3512 43.2437 49.3183 42.5312 50.2344C39.8337 50.896 40.6989 47.6387 39.5283 46.6717C38.3577 45.7046 36.1691 46.2136 34.6932 45.7046C33.2681 45.1448 32.8609 44.0251 31.334 43.8215C29.8071 43.6179 27.3641 46.519 24.5648 45.3484C21.7656 44.076 12.5025 33.0824 12.5025 33.0824C12.5025 33.0824 11.6881 32.8788 11.4846 33.4387C11.3319 33.8968 12.4007 35.0674 12.4007 35.0674C12.4007 35.0674 18.8645 44.7885 25.0229 46.0609C31.1813 47.3333 36.7799 46.1627 38.714 47.8423C40.648 49.5218 40.8007 52.1684 40.8007 52.2193C38.8157 54.357 36.4236 56.1892 35.3039 56.7491C33.3699 57.7161 30.2143 58.3778 30.2143 58.3778C30.6724 58.8867 31.5376 59.2939 32.4537 59.5484C33.8279 59.9046 34.6932 59.243 34.6932 59.243C34.6932 59.243 33.9297 58.5813 34.9476 57.7161C37.5433 55.5276 39.4265 54.6114 42.124 53.9498C43.7527 53.5426 44.2616 54.3061 44.4652 54.0516C46.9591 54.8659 48.995 52.9828 51.1326 51.2014C53.3211 49.4709 56.0695 49.2165 56.0695 49.2165C56.0695 49.2165 57.4946 48.962 57.9018 48.3512C58.258 47.7914 57.4437 47.1297 57.4437 47.1297C57.4437 47.1297 56.2222 47.6387 53.9319 48.8093C51.5907 49.9799 49.1476 53.3899 46.2975 53.2882C44.7197 53.2373 45.076 51.6595 44.9233 51.4559C44.9233 51.3541 44.9233 51.2523 44.9233 51.0996C44.8724 49.929 44.6179 48.9111 44.6179 48.0968C44.6179 47.8932 44.6179 47.6896 44.6688 47.486C44.8724 46.2136 46.501 40.5641 47.4172 39.648ZM42.4803 50.1835C41.9713 50.8451 41.4114 51.5068 40.8007 52.1684L42.4803 50.1835ZM44.6688 51.914C44.7197 52.1684 44.7706 52.4229 44.7197 52.7283C44.7197 52.881 44.6688 52.9828 44.567 53.0337C44.4652 53.0846 44.4143 53.0846 44.3125 53.0846C44.2107 53.1355 44.058 53.1355 43.9562 53.1864C43.7527 53.2373 43.5491 53.1864 43.3455 53.1864C43.1419 53.1864 42.9383 53.1864 42.7347 53.1864C42.6329 53.1864 42.5312 53.1355 42.4294 53.1355C42.3276 53.1355 42.1749 53.1355 42.124 53.0846C41.9204 52.9828 41.7677 52.7283 41.615 52.6774C41.615 52.4738 41.615 52.3211 41.7168 52.1684C41.7168 52.1175 41.7677 52.0666 41.7677 51.9649C41.8186 51.8631 41.8695 51.7613 41.8695 51.6595C41.9713 51.405 42.0731 51.1505 42.2767 50.896C42.3785 50.7942 42.4294 50.6416 42.4803 50.5398C42.5821 50.3871 42.6838 50.2853 42.7856 50.1835C42.9383 50.0308 43.091 49.8781 43.2946 49.7763C43.4473 49.6745 43.7018 49.5727 43.9054 49.6236C44.1089 49.6745 44.1598 49.929 44.2616 50.0817C44.3125 50.1835 44.3125 50.3362 44.3634 50.438C44.4143 50.5907 44.4652 50.7433 44.5161 50.896C44.567 51.0996 44.567 51.2523 44.6179 51.4559C44.6179 51.6086 44.6179 51.7613 44.6688 51.914Z" fill="url(#paint8_linear)"/>
<path fill-rule="evenodd" clip-rule="evenodd" d="M17.185 18.3734C17.185 18.3734 18.2538 20.6129 21.0531 22.6487C21.0531 22.6487 20.1369 19.3914 19.4753 18.0681C19.4753 18.0172 18.5592 17.1519 17.185 18.3734Z" fill="#FFFF0E"/>
<path fill-rule="evenodd" clip-rule="evenodd" d="M31.843 25.1935C31.843 25.1935 33.7262 24.4301 34.3369 24.7355C34.3369 24.6846 32.5047 25.1935 31.843 25.1935Z" fill="#FFFF0E"/>
<path fill-rule="evenodd" clip-rule="evenodd" d="M38.205 23.4122C38.5613 23.3104 38.9175 23.2086 39.2229 23.0559C39.5283 22.9541 39.7828 22.8014 40.0882 22.6487C40.4444 22.4451 40.8007 22.2416 41.1061 21.9871C41.2079 21.9362 41.2588 21.8853 41.3606 21.8344C41.4623 21.7835 41.5641 21.6817 41.6659 21.6308C41.7677 21.5799 41.8186 21.4781 41.9204 21.4272C42.0222 21.3763 42.0731 21.2745 42.1749 21.2236C42.3276 21.1218 42.4803 20.9692 42.5821 20.8674C42.6329 20.8165 42.6838 20.7656 42.7856 20.6638C42.8365 20.6129 42.8874 20.6129 42.9383 20.6129C42.9383 20.6638 42.8874 20.7656 42.8874 20.8165C42.8365 20.9183 42.7856 20.9692 42.7347 21.071C42.6329 21.2745 42.4294 21.3763 42.2767 21.5799C42.1749 21.6817 42.0731 21.7835 41.9204 21.8853C41.7677 21.9871 41.5641 22.0889 41.3606 22.1907C41.157 22.2925 40.9534 22.3434 40.8007 22.4451C40.648 22.5469 40.4444 22.6487 40.2917 22.6996C40.1899 22.7505 40.0373 22.8523 39.9355 22.9032C39.8337 22.9541 39.7319 23.005 39.6301 23.0559C39.4774 23.1577 39.3247 23.2086 39.172 23.3104C39.0702 23.3613 39.0193 23.3613 38.9175 23.4122C38.7649 23.514 38.5104 23.5649 38.3068 23.5649C38.2559 23.5649 38.1541 23.5649 38.1032 23.5649C38.0523 23.5649 38.0014 23.514 38.0014 23.514C38.1032 23.4631 38.1541 23.4122 38.205 23.4122Z" fill="#FFFF0E"/>
<path fill-rule="evenodd" clip-rule="evenodd" d="M43.3455 20.1039C43.2437 20.1548 43.1929 20.2057 43.0911 20.3075C43.0911 20.3584 43.0402 20.4093 43.142 20.4093C43.2438 20.4093 43.2946 20.3584 43.3964 20.2566C43.4473 20.2057 43.4982 20.1039 43.4473 20.053C43.3964 20.0021 43.2946 20.053 43.2438 20.1039H43.3455Z" fill="#FFFF0E"/>
<path fill-rule="evenodd" clip-rule="evenodd" d="M47.4172 13.5383C47.3663 13.6401 47.2645 13.7419 47.2136 13.8437C47.1627 13.9455 47.1627 13.9964 47.1118 14.0982C47.0609 14.2509 47.01 14.4545 46.9591 14.6071C46.8573 14.9125 46.8064 15.2688 46.6538 15.5742C46.6029 15.7269 46.552 15.8287 46.4502 15.9813C46.3993 16.0322 46.3484 16.134 46.3484 16.1849C46.2975 16.2867 46.2975 16.3376 46.2466 16.3885C46.1957 16.4394 46.1957 16.4903 46.1448 16.5412C46.0939 16.5921 46.0939 16.6939 46.043 16.7448C45.9921 16.7957 45.8903 16.9484 45.9412 16.9993C45.9921 16.9993 45.9921 16.9484 46.043 16.9484C46.0939 16.8975 46.1957 16.8466 46.2466 16.7448C46.3993 16.643 46.5011 16.4903 46.6029 16.3376C46.6538 16.2867 46.7047 16.2358 46.7556 16.134C46.8064 16.0322 46.9082 15.9813 46.9591 15.8795C47.0609 15.7269 47.2136 15.5742 47.3154 15.4724C47.3663 15.4215 47.4172 15.3197 47.4681 15.2688C47.519 15.2179 47.5699 15.167 47.6208 15.0652C47.8244 14.8616 47.977 14.658 48.1806 14.4545C48.3333 14.3018 48.4351 14.0982 48.5878 13.9455C48.6896 13.7928 48.7914 13.6401 48.8423 13.4874C48.8932 13.4365 48.9441 13.2838 48.9441 13.2329C48.8932 13.1312 48.7914 13.0803 48.6896 13.0803C48.5369 13.0803 48.3842 13.0803 48.2315 13.0803C48.0788 13.1312 47.977 13.1821 47.8244 13.2329C47.7226 13.2838 47.6208 13.3856 47.4681 13.4365C47.4681 13.5383 47.3663 13.5892 47.4172 13.5383Z" fill="#FFFF0E"/>
<path fill-rule="evenodd" clip-rule="evenodd" d="M48.6896 16.4394C48.6387 16.5412 48.5878 16.643 48.5369 16.7448C48.486 16.7957 48.4351 16.8975 48.3843 16.9484C48.2825 17.1011 48.2316 17.2537 48.1298 17.3555C47.9771 17.61 47.7735 17.8645 47.6717 18.119C47.6208 18.2208 47.5699 18.3226 47.519 18.4244C47.4681 18.5262 47.4172 18.6788 47.4172 18.7806C47.3663 18.8824 47.3663 18.9842 47.3154 19.1369C47.3154 19.2387 47.2645 19.3405 47.2645 19.4423C47.3663 19.3405 47.4172 19.1878 47.519 19.086C47.5699 18.9842 47.6208 18.8824 47.7226 18.8315C47.8244 18.7806 47.8753 18.6788 47.9262 18.577C47.9771 18.4753 48.0789 18.4244 48.1298 18.3226C48.1807 18.2208 48.2316 18.1699 48.2825 18.0681C48.3334 18.0172 48.3843 17.9154 48.4351 17.8136C48.486 17.7118 48.5369 17.61 48.5878 17.5082C48.6387 17.3046 48.7405 17.1011 48.7914 16.8975C48.7914 16.7957 48.8423 16.6939 48.7914 16.5921C48.7914 16.5412 48.6896 16.3376 48.6896 16.4394Z" fill="#FFFF0E"/>
<path fill-rule="evenodd" clip-rule="evenodd" d="M47.01 19.7477C46.9591 19.9003 46.9082 20.0021 46.9082 20.1548C46.9082 20.2057 46.9082 20.2566 46.9082 20.2566C46.9591 20.2566 47.01 20.2566 47.01 20.2057C47.0609 20.2057 47.0609 20.1548 47.0609 20.1039C47.1118 20.053 47.1627 19.9512 47.1118 19.8495C47.1118 19.7477 47.01 19.6968 46.9591 19.7986L47.01 19.7477Z" fill="#FFFF0E"/>
<path fill-rule="evenodd" clip-rule="evenodd" d="M44.4653 26.7204C44.2108 26.9749 43.8545 27.2294 43.6509 27.5348C43.6509 27.5857 43.4982 27.6875 43.5491 27.7384C43.6 27.7893 43.7018 27.7384 43.7527 27.7384C43.9054 27.6875 44.0581 27.5857 44.2108 27.5348C44.3126 27.4839 44.4144 27.3821 44.5161 27.3312C44.7706 27.1785 44.9742 26.9749 45.1778 26.7204C45.2796 26.6186 45.3305 26.5169 45.3814 26.4151C45.3814 26.3642 45.4323 26.2624 45.4323 26.2624C45.3814 26.1097 45.076 26.2624 45.0251 26.3133C44.9742 26.3642 44.8724 26.4151 44.8215 26.466C44.7706 26.5169 44.7197 26.5678 44.6688 26.5678C44.6179 26.6186 44.567 26.6695 44.4653 26.7204C44.4653 26.8222 44.4653 26.7713 44.4653 26.7204Z" fill="#FFFF0E"/>
<path fill-rule="evenodd" clip-rule="evenodd" d="M43.2437 27.9928C43.1419 28.0437 43.0401 28.0946 42.9892 28.1455C42.9892 28.1964 42.8875 28.2473 42.9384 28.2982C42.9892 28.3491 43.091 28.2982 43.091 28.2982C43.1419 28.2982 43.1928 28.2473 43.2437 28.1964C43.2946 28.0946 43.2946 28.0946 43.2437 27.9928Z" fill="#FFFF0E"/>
<path fill-rule="evenodd" clip-rule="evenodd" d="M37.0344 33.9476C36.8308 34.1003 36.5763 34.253 36.3218 34.4057C36.0165 34.5584 35.7111 34.6602 35.4566 34.8129C34.9985 35.0673 34.5405 35.2709 34.0824 35.4745C34.0315 35.5254 33.319 35.7799 33.5734 35.9326C33.6752 35.9835 33.8279 35.9835 33.9297 35.9835C34.0315 35.9835 34.1333 36.0344 34.2351 36.0344C34.3369 36.0344 34.4387 36.0344 34.5405 36.0344C35.1003 36.0344 35.7111 35.8817 36.22 35.6781C36.3218 35.6272 36.4745 35.5763 36.5763 35.5254C36.6272 35.4745 36.6781 35.4236 36.7799 35.3727C36.8817 35.2709 36.9835 35.1691 37.0344 35.0164C37.1362 34.8129 37.1871 34.6602 37.1871 34.4057C37.1871 34.3039 37.1362 34.253 37.0853 34.1512C37.0344 34.1003 36.9835 34.0494 37.0344 33.9476Z" fill="#FFFF0E"/>
<path fill-rule="evenodd" clip-rule="evenodd" d="M33.0136 35.6782C32.9118 35.6273 32.7591 35.5255 32.6065 35.5255C32.5556 35.5255 32.5047 35.5255 32.4538 35.5255C32.352 35.5255 32.1993 35.5764 32.0975 35.6273C31.9957 35.7291 32.2502 35.8309 32.352 35.8818C32.4538 35.9326 32.6574 35.9326 32.7592 35.8818C32.8609 35.8818 33.0645 35.78 33.0136 35.6782C33.0645 35.6782 33.0645 35.6782 33.0645 35.6782H33.0136Z" fill="#FFFF0E"/>
<path fill-rule="evenodd" clip-rule="evenodd" d="M40.4444 34.1003C40.9534 33.9477 41.4623 33.7441 41.9204 33.4896C42.124 33.3878 42.2767 33.286 42.4803 33.1842C42.5821 33.1333 42.7347 33.0315 42.8365 32.9806C42.8874 32.9806 43.1928 32.7771 43.2437 32.8788C43.2946 32.9806 42.9892 33.1842 42.9383 33.2351C42.8365 33.3369 42.6839 33.4387 42.5312 33.5405C42.4294 33.6423 42.2767 33.6423 42.1749 33.7441C42.0222 33.8459 41.8695 33.8968 41.6659 33.9986C41.5641 34.0495 41.4115 34.1003 41.3097 34.1512C41.2079 34.2021 41.1061 34.2021 41.0043 34.253C40.9534 34.253 40.8516 34.253 40.8007 34.253C40.648 34.2021 40.4953 34.253 40.4444 34.1003Z" fill="#FFFF0E"/>
<path fill-rule="evenodd" clip-rule="evenodd" d="M51.7942 36.8996C52.0487 36.8996 52.3541 36.9505 52.6086 36.8996C52.8122 36.8487 52.9648 36.8487 53.1684 36.7978C53.5247 36.7469 53.9319 36.6452 54.2881 36.6452C54.4408 36.6452 54.5935 36.6452 54.7462 36.6452C54.848 36.6452 54.9498 36.6452 55.0007 36.6452C55.0516 36.6452 55.1534 36.6961 55.1534 36.7469C55.2552 36.8487 55.1534 36.8487 55.1025 36.8487C54.9498 36.9505 54.848 37.0014 54.6953 37.0014C54.4408 37.0523 54.2373 37.1032 53.9828 37.1541C53.8301 37.1541 53.6774 37.1541 53.4738 37.1541C53.2702 37.205 53.0666 37.205 52.8122 37.205C52.6086 37.205 52.4559 37.205 52.2523 37.205C52.0996 37.205 51.9978 37.1541 51.8451 37.1541C51.7433 37.1541 51.6415 37.1541 51.5907 37.1032C51.6415 37.1541 51.5398 37.0523 51.7942 36.8996Z" fill="#FFFF0E"/>
<path fill-rule="evenodd" clip-rule="evenodd" d="M57.8509 37.1541C58.1562 37.205 58.3598 37.205 58.6652 37.1541C58.8688 37.1032 59.0724 37.1032 59.2251 37.0523C59.4795 37.0014 59.7849 36.8996 60.0394 36.7469C60.1921 36.6451 60.4466 36.4924 60.5992 36.5433C60.7519 36.5942 60.9046 36.7469 60.9046 36.8996C60.9046 37.1032 60.701 37.205 60.5992 37.3068C60.3957 37.4595 60.0394 37.5613 59.7849 37.5613C59.4795 37.5613 59.1233 37.5104 58.8179 37.4595C58.7161 37.4595 58.6143 37.4086 58.5125 37.4086C58.4616 37.3577 58.258 37.3577 57.8509 37.1541Z" fill="#FFFF0E"/>
<path fill-rule="evenodd" clip-rule="evenodd" d="M58.6144 25.2444C58.6144 25.448 58.4617 26.0079 58.7162 26.1605C58.8689 26.2623 58.9197 26.0079 58.9197 25.9061C58.9197 25.7534 58.818 25.3462 58.6144 25.2444Z" fill="#FFFF0E"/>
<path fill-rule="evenodd" clip-rule="evenodd" d="M13.1133 30.2323C13.3677 30.5376 13.5204 30.843 13.8258 30.9957C14.0294 31.0975 14.1821 31.2502 14.3857 31.3011C14.5892 31.352 14.8437 31.4029 15.0473 31.4029C15.1491 31.4029 15.2 31.4029 15.2 31.2502C15.2 31.1993 15.1491 31.0975 15.0982 31.0466C15.0473 30.9448 14.9455 30.8939 14.8437 30.7921C14.7419 30.6903 14.691 30.5885 14.5892 30.4867C14.233 30.1814 13.8767 29.9778 13.4186 29.8251C13.2659 29.7742 13.2659 29.7742 13.1133 29.8251C13.0115 29.876 13.0115 29.876 12.9606 29.9778C12.9606 30.1305 13.0624 30.2832 13.1642 30.4359L13.1133 30.2323Z" fill="#FFFF0E"/>
<path fill-rule="evenodd" clip-rule="evenodd" d="M13.3168 34.9656C13.6731 35.5763 14.1312 36.0853 14.5892 36.6452C14.8946 37.0014 15.0982 37.5104 15.4545 37.8667C15.5054 37.9176 16.167 38.4774 16.167 38.172C16.167 38.1211 15.9634 37.8158 15.9634 37.7649C15.8616 37.6122 15.7599 37.4086 15.6072 37.2559C15.5054 37.1032 15.3527 37.0014 15.3018 36.8487C15.2 36.6961 15.0982 36.5943 14.9964 36.4416C14.8437 36.2889 14.7419 36.0344 14.6401 35.8817C14.5383 35.729 14.3857 35.5254 14.2839 35.3728C14.1312 35.1183 13.9276 34.8638 13.6731 34.762C13.6222 34.7111 13.5204 34.6602 13.4186 34.7111C13.2151 34.8638 13.3168 35.1692 13.3168 34.9656Z" fill="#FFFF0E"/>
<path fill-rule="evenodd" clip-rule="evenodd" d="M36.5254 46.3154C37.0853 46.2136 37.4925 46.1118 38.0523 46.2645C38.3068 46.3154 38.5613 46.4172 38.8158 46.4681C38.9685 46.519 39.2229 46.5699 39.3247 46.6717C39.4265 46.8244 39.4265 47.028 39.2738 47.1297C39.1211 47.2824 38.7649 47.2315 38.5613 47.2315C38.1541 47.1806 37.7978 47.1297 37.3907 47.028C37.1871 46.9771 36.8817 46.8753 36.6781 46.7226C36.6781 46.6717 36.4236 46.4681 36.5254 46.3154Z" fill="#FFFF0E"/>
<path fill-rule="evenodd" clip-rule="evenodd" d="M43.9562 49.2165C43.7018 49.1656 43.6509 48.6567 43.7527 48.4531C43.8036 48.3513 43.8545 48.1477 44.0071 48.0968C44.1089 48.0459 44.1598 48.1477 44.2616 48.1477C44.1598 48.4022 44.0071 48.6058 43.8544 48.8093L43.9562 49.2165Z" fill="#FFFF0E"/>
<path fill-rule="evenodd" clip-rule="evenodd" d="M54.0846 49.0129C54.4409 48.7584 54.6954 48.6057 55.1025 48.5039C55.3061 48.453 55.5097 48.4021 55.7133 48.3512C55.9678 48.3003 56.1713 48.1477 56.4258 48.1477C56.5276 48.1477 56.5785 48.1477 56.6803 48.0968C56.7821 48.0968 56.7312 48.0459 56.833 48.0968C57.0366 48.1985 56.9348 48.3512 56.833 48.453C56.5785 48.6566 56.3749 48.7584 56.0696 48.8093C55.866 48.8602 55.7642 48.962 55.5606 49.0129C55.4588 49.0638 55.357 49.0638 55.2552 49.1147C54.7972 49.2165 54.2882 49.1147 54.0846 49.0129Z" fill="#FFFF0E"/>
<path fill-rule="evenodd" clip-rule="evenodd" d="M21.6638 48.1476C21.8674 48.6057 22.071 49.0638 22.3763 49.4709C22.529 49.6745 22.6308 49.8272 22.8344 49.929C22.9871 49.9799 23.1398 50.0308 23.1398 49.7763C23.1398 49.6745 23.038 49.4709 22.9871 49.3691C22.7835 49.0129 22.529 48.7584 22.3254 48.453C22.2236 48.3512 22.1219 48.1476 22.0201 48.0967C21.9183 48.0458 21.6638 47.9441 21.6638 48.1476Z" fill="#FFFF0E"/>
<path fill-rule="evenodd" clip-rule="evenodd" d="M31.1305 58.4287C31.6903 58.3269 32.1484 58.1233 32.6573 57.9706C32.8609 57.8689 33.0645 57.8688 33.319 57.8688L33.3699 57.818C33.4208 57.818 33.5226 57.818 33.5735 57.818C33.6244 57.818 33.8788 57.7671 33.9297 57.818C34.1333 57.9706 33.7262 58.3778 33.6244 58.4287C33.2681 58.785 32.7082 58.9886 32.1484 58.9377C31.8939 58.8868 31.6394 58.785 31.3849 58.7341C31.2322 58.7341 30.876 58.6323 30.876 58.4287C30.9269 58.4796 30.9269 58.4287 31.1305 58.4287Z" fill="#FFFF0E"/>
<path fill-rule="evenodd" clip-rule="evenodd" d="M40.4444 52.9828C39.9864 53.2881 39.4265 53.5935 39.0702 54.1025C38.8158 54.4588 39.2738 54.357 39.4774 54.3061C39.6301 54.2552 39.7828 54.2043 39.8846 54.1025C39.9864 54.0007 40.0882 53.9498 40.1899 53.7971C40.2917 53.6953 40.3426 53.6444 40.4444 53.5935C40.4953 53.4917 40.5462 53.339 40.648 53.2881C40.648 53.2373 40.5971 53.2373 40.5971 53.1864L40.4444 52.9828Z" fill="#FFFF0E"/>
<path fill-rule="evenodd" clip-rule="evenodd" d="M27.3642 45.6028C27.7205 45.4502 28.0767 45.3484 28.3821 45.1448C28.6875 44.9921 28.9929 44.7885 29.2982 44.6358C29.7054 44.4322 30.1126 44.1778 30.5706 44.1269C30.7233 44.1269 30.876 44.0251 31.0287 44.1269C31.1814 44.1778 31.2323 44.2287 31.3341 44.3304C31.5885 44.6867 31.0796 44.9921 30.8251 45.1448C30.6215 45.2975 30.4688 45.4502 30.2144 45.552C29.9599 45.6537 29.7054 45.7046 29.4509 45.8064C29.0437 45.9591 28.5857 46.1627 28.1276 46.2136C27.8731 46.2645 27.6696 46.1627 27.466 46.01C27.3642 45.9591 27.2624 45.8573 27.2115 45.7555C27.1606 45.7046 27.1097 45.6028 27.3642 45.6028Z" fill="#FFFF0E"/>
<g style="mix-blend-mode:screen">
<path fill-rule="evenodd" clip-rule="evenodd" d="M43.9054 30.2322C45.076 33.0315 42.4803 36.7978 38.1032 38.5792C33.7262 40.4115 29.2473 39.5971 28.0767 36.7978C26.9061 33.9986 29.5018 30.2322 33.8789 28.4509C38.2559 26.6186 42.7348 27.433 43.9054 30.2322Z" fill="url(#paint9_radial)"/>
</g>
<g style="mix-blend-mode:screen">
<path fill-rule="evenodd" clip-rule="evenodd" d="M23.8523 23.0559C22.1728 25.6007 18.3556 26.0079 15.4036 24.0229C12.4007 22.038 11.3319 18.3735 13.0624 15.8287C14.7928 13.2839 18.5591 12.8767 21.5111 14.8616C24.4631 16.8466 25.5319 20.5111 23.8523 23.0559Z" fill="url(#paint10_radial)"/>
</g>
<g style="mix-blend-mode:screen">
<path fill-rule="evenodd" clip-rule="evenodd" d="M64.5692 39.9534C63.0423 42.2437 59.6323 42.6 56.9348 40.8187C54.2373 39.0373 53.2702 35.729 54.7971 33.4387C56.324 31.1484 59.7341 30.7921 62.4316 32.5735C65.129 34.4058 66.0961 37.6631 64.5692 39.9534Z" fill="url(#paint11_radial)"/>
</g>
<g style="mix-blend-mode:screen">
<path fill-rule="evenodd" clip-rule="evenodd" d="M30.7233 60.0064C29.1964 62.2968 25.7864 62.653 23.0889 60.8717C20.3914 59.0903 19.4244 55.7821 20.9513 53.4917C22.4782 51.2014 25.8882 50.8451 28.5857 52.6265C31.2832 54.4079 32.2502 57.7161 30.7233 60.0064Z" fill="url(#paint12_radial)"/>
</g>
</g>
<defs>
<radialGradient id="paint0_radial" cx="0" cy="0" r="1" gradientUnits="userSpaceOnUse" gradientTransform="translate(36.4964 35.4964) scale(35.4964)">
<stop stop-color="#FF4000"/>
<stop offset="1"/>
</radialGradient>
<radialGradient id="paint1_radial" cx="0" cy="0" r="1" gradientUnits="userSpaceOnUse" gradientTransform="translate(36.4964 35.4964) scale(27.8787)">
<stop stop-color="#FF7300"/>
<stop offset="1"/>
</radialGradient>
<radialGradient id="paint2_radial" cx="0" cy="0" r="1" gradientUnits="userSpaceOnUse" gradientTransform="translate(36.4964 35.4964) scale(26.6039)">
<stop stop-color="#FF7900"/>
<stop offset="0.1826" stop-color="#FC7800"/>
<stop offset="0.3154" stop-color="#F37300"/>
<stop offset="0.4324" stop-color="#E36C00"/>
<stop offset="0.5403" stop-color="#CC6100"/>
<stop offset="0.6419" stop-color="#AF5300"/>
<stop offset="0.739" stop-color="#8C4200"/>
<stop offset="0.8324" stop-color="#622E00"/>
<stop offset="0.9204" stop-color="#321800"/>
<stop offset="1"/>
</radialGradient>
<radialGradient id="paint3_radial" cx="0" cy="0" r="1" gradientUnits="userSpaceOnUse" gradientTransform="translate(21.5802 23.7954) scale(38.7327)">
<stop offset="0.00558659" stop-color="#DE6863"/>
<stop offset="0.2018" stop-color="#DB6563"/>
<stop offset="0.3542" stop-color="#D15D62"/>
<stop offset="0.4919" stop-color="#C14F60"/>
<stop offset="0.6209" stop-color="#A93B5E"/>
<stop offset="0.7437" stop-color="#8B225B"/>
<stop offset="0.8606" stop-color="#670357"/>
<stop offset="0.8715" stop-color="#630057"/>
</radialGradient>
<linearGradient id="paint4_linear" x1="12.4008" y1="28.4584" x2="47.0864" y2="28.4584" gradientUnits="userSpaceOnUse">
<stop offset="0.0111732" stop-color="#FF7D85"/>
<stop offset="0.2983" stop-color="#FC7B84"/>
<stop offset="0.5089" stop-color="#F3757F"/>
<stop offset="0.695" stop-color="#E36B77"/>
<stop offset="0.8659" stop-color="#CC5C6C"/>
<stop offset="1" stop-color="#B54D61"/>
</linearGradient>
<radialGradient id="paint5_radial" cx="0" cy="0" r="1" gradientUnits="userSpaceOnUse" gradientTransform="translate(18.8926 18.6611) scale(31.7374)">
<stop stop-color="#FFFF4A"/>
<stop offset="1"/>
</radialGradient>
<linearGradient id="paint6_linear" x1="12.2905" y1="24.6923" x2="54.8896" y2="24.6923" gradientUnits="userSpaceOnUse">
<stop offset="0.00558659" stop-color="#FFB80B"/>
<stop offset="0.388" stop-color="#FFB60C"/>
<stop offset="0.5789" stop-color="#FEAE10"/>
<stop offset="0.7274" stop-color="#FCA117"/>
<stop offset="0.8539" stop-color="#FA8E21"/>
<stop offset="0.9655" stop-color="#F7762E"/>
<stop offset="1" stop-color="#F66D33"/>
</linearGradient>
<radialGradient id="paint7_radial" cx="0" cy="0" r="1" gradientUnits="userSpaceOnUse" gradientTransform="translate(16.0303 46.356) scale(12.2469)">
<stop offset="0.00558659" stop-color="#FFB80B"/>
<stop offset="0.388" stop-color="#FFB60C"/>
<stop offset="0.5789" stop-color="#FEAE10"/>
<stop offset="0.7274" stop-color="#FCA117"/>
<stop offset="0.8539" stop-color="#FA8E21"/>
<stop offset="0.9655" stop-color="#F7762E"/>
<stop offset="1" stop-color="#F66D33"/>
</radialGradient>
<linearGradient id="paint8_linear" x1="11.4695" y1="42.2711" x2="61.4168" y2="42.2711" gradientUnits="userSpaceOnUse">
<stop offset="0.00558659" stop-color="#FFB80B"/>
<stop offset="0.388" stop-color="#FFB60C"/>
<stop offset="0.5789" stop-color="#FEAE10"/>
<stop offset="0.7274" stop-color="#FCA117"/>
<stop offset="0.8539" stop-color="#FA8E21"/>
<stop offset="0.9655" stop-color="#F7762E"/>
<stop offset="1" stop-color="#F66D33"/>
</linearGradient>
<radialGradient id="paint9_radial" cx="0" cy="0" r="1" gradientUnits="userSpaceOnUse" gradientTransform="translate(36.0261 33.519) rotate(-22.7129) scale(8.5636 5.49051)">
<stop stop-color="#FF5B00"/>
<stop offset="0.1732" stop-color="#C54600"/>
<stop offset="0.3988" stop-color="#802E00"/>
<stop offset="0.6025" stop-color="#491A00"/>
<stop offset="0.7769" stop-color="#210C00"/>
<stop offset="0.9151" stop-color="#090300"/>
<stop offset="1"/>
</radialGradient>
<radialGradient id="paint10_radial" cx="0" cy="0" r="1" gradientUnits="userSpaceOnUse" gradientTransform="translate(18.4433 19.4362) rotate(33.7715) scale(6.51288 5.49066)">
<stop stop-color="#FF5B00"/>
<stop offset="0.1732" stop-color="#C54600"/>
<stop offset="0.3988" stop-color="#802E00"/>
<stop offset="0.6025" stop-color="#491A00"/>
<stop offset="0.7769" stop-color="#210C00"/>
<stop offset="0.9151" stop-color="#090300"/>
<stop offset="1"/>
</radialGradient>
<radialGradient id="paint11_radial" cx="0" cy="0" r="1" gradientUnits="userSpaceOnUse" gradientTransform="translate(59.6986 36.6949) rotate(33.7715) scale(5.87483 4.95275)">
<stop stop-color="#FF5B00"/>
<stop offset="0.1732" stop-color="#C54600"/>
<stop offset="0.3988" stop-color="#802E00"/>
<stop offset="0.6025" stop-color="#491A00"/>
<stop offset="0.7769" stop-color="#210C00"/>
<stop offset="0.9151" stop-color="#090300"/>
<stop offset="1"/>
</radialGradient>
<radialGradient id="paint12_radial" cx="0" cy="0" r="1" gradientUnits="userSpaceOnUse" gradientTransform="translate(25.8285 56.7206) rotate(33.7715) scale(5.87482 4.95275)">
<stop stop-color="#FF5B00"/>
<stop offset="0.1732" stop-color="#C54600"/>
<stop offset="0.3988" stop-color="#802E00"/>
<stop offset="0.6025" stop-color="#491A00"/>
<stop offset="0.7769" stop-color="#210C00"/>
<stop offset="0.9151" stop-color="#090300"/>
<stop offset="1"/>
</radialGradient>
<clipPath id="clip0">
<rect width="71" height="71" fill="white" transform="translate(1)"/>
</clipPath>
</defs>
</svg>
